<svg width="1200" height="185" fill="none" xmlns="http://www.w3.org/2000/svg"><path d="M81.09 112.211h59.269c-2.667 13.15-8.493 23.429-17.48 30.836s-19.773 11.107-32.36 11.101c-17.026 0-30.46-5.096-40.3-15.289-9.84-10.192-14.76-24.416-14.76-42.672 0-11.512 2.15-21.545 6.45-30.1A46.713 46.713 0 0160 46.363c7.76-4.596 16.687-6.897 26.78-6.904 10.254 0 19.14 2.345 26.66 7.033a41.505 41.505 0 0116.49 18.9h36.7c-4-17.766-13-31.867-27-42.305-14-10.438-31.69-15.66-53.07-15.667-17.2 0-32.326 3.784-45.38 11.35A78.477 78.477 0 0010.8 50.222C3.6 63.597 0 78.922 0 96.197c0 17.274 3.597 32.606 10.79 45.994a77.453 77.453 0 0030.5 31.333c13.146 7.487 28.316 11.227 45.51 11.221 15.039 0 28.389-2.918 40.049-8.754a77.915 77.915 0 0028.27-23.315 81.83 81.83 0 0014.51-31.831V87.344h-88.54v24.867zM230.878.726h-34.97v182.536h34.97V.726zm131.309 52.54c-10.667-5.577-22.697-8.372-36.09-8.385-13.393-.014-25.426 2.782-36.1 8.385a61.621 61.621 0 00-25.169 24.3c-6.12 10.61-9.18 23.067-9.18 37.371 0 14.304 3.06 26.721 9.18 37.251a62.646 62.646 0 0025.169 24.301c10.667 5.669 22.694 8.504 36.08 8.504 13.387 0 25.417-2.835 36.09-8.504a62.712 62.712 0 0025.17-24.301c6.113-10.524 9.17-22.941 9.17-37.251 0-14.31-3.057-26.767-9.17-37.37a61.685 61.685 0 00-25.15-24.301zm-11.29 91.392a35.008 35.008 0 01-11.373 7.585 35.166 35.166 0 01-26.854 0 35.008 35.008 0 01-11.373-7.585c-6.78-6.81-10.166-16.717-10.16-29.721.007-13.004 3.394-22.911 10.16-29.721a35.013 35.013 0 0111.373-7.584 35.163 35.163 0 0126.854 0 35.013 35.013 0 0111.373 7.584c6.78 6.823 10.17 16.73 10.17 29.721s-3.39 22.898-10.17 29.721zm183.758-91.392a59.38 59.38 0 00-31.249-8.385c-11.567 0-21.444 2.715-29.63 8.146a44.552 44.552 0 00-17.48 21.953V.726h-35v182.536h35v-28.607a45.2 45.2 0 0017.48 22.072c8.18 5.511 18.056 8.266 29.63 8.266a59.242 59.242 0 0031.249-8.385c9.26-5.59 16.493-13.69 21.7-24.3 5.207-10.61 7.81-23.067 7.81-37.371 0-14.304-2.603-26.76-7.81-37.37-5.207-10.61-12.44-18.711-21.7-24.301zm-15.87 90.656c-6.606 6.996-15.369 10.491-26.289 10.484-10.58 0-19.3-3.577-26.16-10.732-6.86-7.156-10.29-16.735-10.29-28.737 0-12.169 3.43-21.83 10.29-28.986 6.86-7.155 15.58-10.729 26.16-10.722 10.913 0 19.676 3.534 26.289 10.603 6.614 7.069 9.92 16.771 9.92 29.105s-3.306 21.996-9.92 28.985zM690.144 74.98a44.313 44.313 0 00-17.61-21.953c-8.266-5.43-18.186-8.146-29.759-8.146a59.38 59.38 0 00-31.25 8.385c-9.26 5.597-16.49 13.697-21.69 24.3-5.2 10.604-7.813 23.061-7.84 37.371 0 14.317 2.607 26.774 7.82 37.371 5.213 10.597 12.443 18.697 21.69 24.3a59.244 59.244 0 0031.25 8.386c11.573 0 21.493-2.756 29.759-8.266a44.95 44.95 0 0017.61-22.073v28.608h34.72V46.612h-34.7V74.98zm-10.29 68.694c-6.866 7.162-15.59 10.739-26.17 10.733-10.913 0-19.673-3.495-26.279-10.484-6.607-6.99-9.914-16.652-9.92-28.986 0-12.334 3.306-22.036 9.92-29.105 6.613-7.069 15.373-10.603 26.279-10.603 10.58 0 19.304 3.574 26.17 10.723 6.867 7.148 10.297 16.81 10.29 28.985 0 12.003-3.43 21.582-10.29 28.737zM791.563.726h-34.969v182.536h34.969V.726zm66.71 8.385h-.01V0h-34.96v183.262h93.739v-26.637h-58.769V9.111zm176.937 44.155c-10.17-5.577-22.04-8.372-35.588-8.385-13.394 0-25.297 2.795-35.71 8.385a59.072 59.072 0 00-24.3 24.3c-5.787 10.61-8.68 23.067-8.68 37.371 0 14.304 2.893 26.721 8.68 37.251a60.021 60.021 0 0024.3 24.301c10.42 5.669 22.323 8.504 35.71 8.504a73.85 73.85 0 0031.118-6.416 60.755 60.755 0 0022.94-17.755 58.598 58.598 0 0011.66-25.653h-36.95a26.194 26.194 0 01-10.29 16.034c-5.38 3.939-12.12 5.929-20.208 5.969-9.1 0-16.707-2.878-22.82-8.634-6.114-5.756-9.42-14.708-9.92-26.857h100.678a64.588 64.588 0 001.24-11.847c0-12.493-2.77-23.634-8.3-33.422a59.325 59.325 0 00-23.56-23.146zm-3.35 53.037h-66.708c.667-11.18 4.22-19.648 10.66-25.404s14.376-8.634 23.81-8.634c9.258 0 17.068 2.878 23.438 8.634 6.37 5.755 9.3 14.224 8.8 25.404zm161.06 17.149a41.961 41.961 0 00-16.86-12.086 177.71 177.71 0 00-25.42-7.281c-7.44-1.81-13.14-3.372-17.11-4.685a28.534 28.534 0 01-9.92-5.431 11.504 11.504 0 01-4-9.121 14.13 14.13 0 011.18-6.25 14.13 14.13 0 013.82-5.1c3.33-2.792 7.96-4.19 13.89-4.198 7.44 0 13.47 1.99 18.1 5.969a26.998 26.998 0 018.93 15.785h32.74c-2.48-13.972-8.76-25.155-18.85-33.55-10.09-8.396-23.48-12.59-40.17-12.583-16.04 0-28.61 3.7-37.7 11.1-9.09 7.4-13.64 17.016-13.64 28.847 0 9.21 2.27 16.445 6.82 21.704a39.734 39.734 0 0016.37 11.469 193.518 193.518 0 0024.92 7.032c7.44 1.81 13.19 3.372 17.24 4.685a27.509 27.509 0 0110.16 5.68 12.337 12.337 0 014.1 9.618 14.61 14.61 0 01-1.12 6.125 14.693 14.693 0 01-3.6 5.096c-3.14 2.878-7.69 4.317-13.64 4.317-8.26 0-14.95-1.933-20.08-5.799a22.59 22.59 0 01-6.16-7.017 22.388 22.388 0 01-2.77-8.899h-33.48c2.32 14.801 8.85 26.187 19.59 34.158s25.04 11.95 42.9 11.937c15.54 0 27.9-3.618 37.08-10.853 9.18-7.234 13.77-16.691 13.76-28.368-.01-9.357-2.37-16.791-7.08-22.301z" fill="#00B461"/></svg>