<svg width="1135" height="645" fill="none" xmlns="http://www.w3.org/2000/svg"><g opacity=".03" fill="#10160C"><path d="M705.943 326.691l18.474 31.723H551.818l18.46-31.723H543.62l94.519-174.392 94.519 174.392h-26.715zm342.027 266.031L868.223 358.415h-18.729l64.681-119.298 77.911 143.698h-22.022l75.396 129.424h-35.42l37.93 80.483zM508.282 515h-58.461v56.866h58.461V515zm549.358 125.604v.137l-.82 3.242-.15.729v.15H656.046l-.749-.879-197.9-258.076-2.572-3.27-2.46-3.202h404.974l200.301 261.169zM467.786 434.818L306.678 644.945h-53.019l187.639-244.681 26.488 34.554zM78.375 644.931h-1.201l.848-1.786c.085.577.212 1.223.353 1.786z"/><path d="M78.022 643.145l-.848 1.786h1.201a18.982 18.982 0 01-.353-1.786zm1038.898-75.222a179.968 179.968 0 01-12.72 19.537 507.635 507.635 0 01-7.32 57.471h-40.33v-.151l.16-.728.82-3.242v-.138c1.85-9.617 3.42-19.386 4.62-29.195a467.833 467.833 0 003.83-59.725c0-267.158-223.638-484.54-498.502-484.54-74.324-.09-147.716 16.083-214.734 47.318l-2.827-5.22-15.591-28.674c6.417-2.981 12.863-5.894 19.407-8.67-10.587-12.365-28.736-18.163-34.8-19.798-1.329-.384-2.078-.535-2.078-.535s.538-.262 1.499-.66c8.283-3.53 50.503-20.045 95.225-12.05a189.883 189.883 0 0122.885 5.634 543.242 543.242 0 0180.172-13.3C509.257 13.08 488.069.825 488.069.825s51.408-6.499 96.018 16.982a187.41 187.41 0 0120.17 12.365 541.543 541.543 0 0180.299 11.252C683.327 22.588 668.075 5.14 667.128 4.04c1.852.343 51.578 9.892 85.883 44.913a179.297 179.297 0 0115.138 17.738 544.445 544.445 0 0172.864 35.062c4.99-18.41-4.24-39.843-4.622-40.956 1.414.755 45.825 24.826 67.367 68.572a173.585 173.585 0 018.975 21.818 540.036 540.036 0 0157.826 54.956c11.011-16.487 8.706-40.489 8.706-40.489s35.645 36.601 42.335 85.485a176.406 176.406 0 011.55 23.192 521.144 521.144 0 0137.79 69.657c15.43-12.461 20.86-35.817 20.86-35.817s22.29 45.504 13.1 93.975a185.635 185.635 0 01-5.81 22.34 502.05 502.05 0 0113.68 77.86c18.69-7.131 31.3-27.739 31.3-27.739s6.95 49.997-17.15 93.316z"/><path d="M78.375 644.931h-1.201l.848-1.786c.085.577.212 1.223.353 1.786z"/><path d="M437.184 370.532l-7.929 10.277-1.527 1.937L226.605 645H78.375a27.246 27.246 0 01-.34-1.814l1.682-3.531 75.098-159.264h-54.023l114.972-197.35h-33.556l91.65-169.074a355.335 355.335 0 018.325-5.18c9.668-5.907 19.548-11.554 29.683-16.858l1.724-.893 1.527-.755.466.893 2.742 5.056 4.241 7.79 4.82 8.889 6.063 11.211 86.222 159.004h-33.513l43.917 75.442 1.413 2.267 5.696 9.699z"/><path d="M250.748 111.343l-3.463 6.403-12.891 23.713-63.239 116.783c-51.709 65.739-85.159 143.298-97.134 225.227-.805 5.949-1.61 11.87-2.19 17.861a469.855 469.855 0 00.34 103.648c1.412 12.846 3.42 25.582 5.879 38.099.085.577.212 1.222.353 1.786H38.345c-2.728-14.44-4.763-29.059-6.205-43.897C13.468 608.083.846 628.692.846 628.692s-6.672-50.011 17.456-93.33a201.542 201.542 0 0112.722-19.538 511.515 511.515 0 0111.562-78.121c-19.365 1.141-37.33 16.02-38.447 16.955.34-1.814 10.177-50.148 46.25-83.507A179.049 179.049 0 0168.65 356.45a511.314 511.314 0 0136.016-70.826c-18.94-4.891-41.104 4.122-42.164 4.493.82-1.374 25.57-44.57 70.546-65.508a184.982 184.982 0 0122.517-8.697 529.97 529.97 0 0156.468-56.331c-16.962-10.648-41.683-8.422-41.683-8.422s33.994-31.078 80.398-39.816z"/></g></svg>