<svg width="794" height="451" fill="none" xmlns="http://www.w3.org/2000/svg"><g opacity=".03" fill="#10160C"><path d="M493.613 228.43l12.918 22.182H385.845l12.908-22.182h-18.641l66.091-121.939 66.089 121.939h-18.679zM732.77 414.446L607.083 250.612h-13.095l45.226-83.415 54.477 100.477h-15.398l52.717 90.496h-24.767l26.527 56.276zm-377.366-54.345h-40.878v39.762h40.878v-39.762zm384.126 87.825v.096l-.573 2.267-.109.509v.106H458.724l-.524-.615-138.377-180.454-1.798-2.286-1.72-2.238h283.168L739.53 447.926zm-412.442-143.89L214.437 450.962h-37.072l131.201-171.087 18.522 24.161zM54.802 450.952h-.84l.593-1.249c.06.403.148.855.247 1.249z"/><path d="M54.555 449.703l-.593 1.249h.84a13.35 13.35 0 01-.247-1.249zm726.426-52.597a126.728 126.728 0 01-8.895 13.661 354.782 354.782 0 01-5.12 40.185h-28.197v-.106l.108-.509.574-2.267v-.096a303.456 303.456 0 003.232-20.414 327.312 327.312 0 002.678-41.761c0-186.804-156.374-338.802-348.566-338.802-51.969-.063-103.287 11.245-150.148 33.086l-1.977-3.651-10.901-20.05c4.487-2.084 8.994-4.12 13.57-6.061-7.403-8.646-20.093-12.7-24.333-13.844a20.197 20.197 0 00-1.453-.374s.376-.183 1.048-.461c5.791-2.47 35.313-14.017 66.584-8.426a132.757 132.757 0 0116.001 3.94 379.87 379.87 0 0156.059-9.3C356.085 9.146 341.27.576 341.27.576s35.946-4.543 67.138 11.875a130.952 130.952 0 0114.103 8.646 378.684 378.684 0 0156.148 7.868c-.86-13.171-11.524-25.372-12.186-26.14 1.294.24 36.064 6.917 60.051 31.404a125.31 125.31 0 0110.585 12.403 380.669 380.669 0 0150.948 24.516c3.489-12.873-2.965-27.86-3.232-28.637.989.528 32.042 17.359 47.105 47.947a121.458 121.458 0 016.276 15.255 377.725 377.725 0 0140.433 38.427c7.699-11.528 6.088-28.311 6.088-28.311s24.925 25.593 29.6 59.774a123.712 123.712 0 011.088 16.216 364.128 364.128 0 0126.418 48.706c10.792-8.713 14.587-25.045 14.587-25.045s15.586 31.818 9.162 65.711a129.846 129.846 0 01-4.062 15.62 352.003 352.003 0 019.568 54.442c13.065-4.986 21.881-19.396 21.881-19.396s4.863 34.959-11.988 65.249z"/><path d="M54.802 450.952h-.84l.593-1.249c.06.403.148.855.247 1.249z"/><path d="M305.69 259.085l-5.544 7.186-1.068 1.355L158.448 451H54.801a19.07 19.07 0 01-.237-1.268l1.176-2.469 52.51-111.362H70.476l80.391-137.991h-23.463l64.084-118.221a246.844 246.844 0 015.821-3.622c6.76-4.131 13.669-8.08 20.755-11.788l1.206-.624 1.067-.529.327.625 1.917 3.535 2.965 5.447 3.37 6.216 4.24 7.839 60.289 111.179h-23.434l30.708 52.751.988 1.585 3.983 6.782z"/><path d="M175.329 77.854l-2.421 4.477-9.014 16.58-44.218 81.658c-36.157 45.966-59.545 100.197-67.918 157.484-.564 4.16-1.127 8.3-1.532 12.489a328.528 328.528 0 00.237 72.473c.988 8.983 2.392 17.889 4.111 26.64.06.404.149.855.248 1.249h-28.01c-1.907-10.097-3.33-20.318-4.339-30.694C9.417 425.187.591 439.597.591 439.597s-4.664-34.969 12.207-65.259a140.874 140.874 0 018.894-13.661 357.646 357.646 0 018.085-54.624c-13.54.797-26.102 11.202-26.883 11.855.238-1.268 7.116-35.065 32.339-58.39a125.1 125.1 0 0112.77-10.279 357.481 357.481 0 0125.182-49.523c-13.244-3.42-28.741 2.882-29.482 3.141.573-.961 17.879-31.164 49.328-45.805a129.268 129.268 0 0115.744-6.081 370.617 370.617 0 0139.484-39.388c-11.86-7.445-29.146-5.889-29.146-5.889s23.769-21.73 56.216-27.84z"/></g></svg>