<svg width="1200" height="185" viewBox="0 0 1200 185" fill="none" xmlns="http://www.w3.org/2000/svg">
<path d="M81.0893 112.211H140.359C137.692 125.361 131.866 135.64 122.879 143.047C113.892 150.454 103.106 154.154 90.5192 154.148C73.4927 154.148 60.0595 149.052 50.2196 138.859C40.3797 128.667 35.4597 114.443 35.4597 96.1869C35.4597 84.675 37.6097 74.6418 41.9096 66.0874C45.8775 57.8989 52.1653 51.0428 59.9995 46.3627C67.7594 41.7672 76.686 39.4661 86.7793 39.4594C97.0325 39.4594 105.919 41.8037 113.439 46.492C120.762 50.9509 126.522 57.5517 129.929 65.3912H166.629C162.629 47.6259 153.629 33.5245 139.629 23.0868C125.629 12.6492 107.939 7.42701 86.5593 7.42038C69.3594 7.42038 54.2329 11.2036 41.1796 18.7699C28.2623 26.1798 17.7269 37.0872 10.7999 50.2221C3.59997 63.5974 0 78.9223 0 96.1968C0 113.471 3.59663 128.803 10.7899 142.191C17.7207 155.332 28.3092 166.21 41.2896 173.524C54.4362 181.011 69.6061 184.751 86.7993 184.745C101.839 184.745 115.189 181.827 126.849 175.991C138.003 170.568 147.695 162.575 155.119 152.676C162.198 143.226 167.147 132.369 169.629 120.845V87.344H81.0893V112.211Z" fill="#10160C"/>
<path d="M230.878 0.726107H195.908V183.262H230.878V0.726107Z" fill="#10160C"/>
<path d="M362.187 53.266C351.52 47.6891 339.49 44.894 326.097 44.8808C312.704 44.8675 300.671 47.6625 289.997 53.266C279.423 58.7766 270.681 67.2172 264.828 77.5664C258.708 88.1765 255.648 100.633 255.648 114.937C255.648 129.241 258.708 141.658 264.828 152.188C270.727 162.502 279.457 170.931 289.997 176.489C300.664 182.158 312.691 184.993 326.077 184.993C339.464 184.993 351.494 182.158 362.167 176.489C372.705 170.928 381.435 162.5 387.337 152.188C393.45 141.664 396.507 129.247 396.507 114.937C396.507 100.627 393.45 88.1698 387.337 77.5664C381.486 67.2221 372.752 58.7825 362.187 53.266ZM350.897 144.658C347.645 147.907 343.78 150.484 339.524 152.243C335.269 154.001 330.706 154.906 326.097 154.906C321.489 154.906 316.926 154.001 312.67 152.243C308.414 150.484 304.549 147.907 301.297 144.658C294.517 137.848 291.131 127.941 291.137 114.937C291.144 101.933 294.531 92.0259 301.297 85.2155C304.549 81.9674 308.414 79.3901 312.67 77.6315C316.926 75.8729 321.489 74.9676 326.097 74.9676C330.706 74.9676 335.269 75.8729 339.524 77.6315C343.78 79.3901 347.645 81.9674 350.897 85.2155C357.677 92.0391 361.067 101.946 361.067 114.937C361.067 127.928 357.677 137.835 350.897 144.658Z" fill="#10160C"/>
<path d="M534.655 53.2658C525.225 47.6346 514.403 44.7308 503.406 44.8806C491.839 44.8806 481.962 47.5961 473.776 53.0271C465.727 58.2835 459.596 65.9822 456.296 74.9799V0.726107H421.296V183.262H456.296V154.655C459.615 163.674 465.738 171.406 473.776 176.727C481.956 182.238 491.832 184.993 503.406 184.993C514.404 185.15 525.228 182.246 534.655 176.608C543.915 171.018 551.148 162.918 556.355 152.308C561.562 141.697 564.165 129.241 564.165 114.937C564.165 100.633 561.562 88.1763 556.355 77.5662C551.148 66.9562 543.915 58.856 534.655 53.2658ZM518.785 143.922C512.179 150.918 503.416 154.413 492.496 154.406C481.916 154.406 473.196 150.829 466.336 143.674C459.476 136.518 456.046 126.939 456.046 114.937C456.046 102.768 459.476 93.1066 466.336 85.9514C473.196 78.7963 481.916 75.222 492.496 75.2286C503.409 75.2286 512.172 78.7631 518.785 85.8321C525.399 92.901 528.705 102.603 528.705 114.937C528.705 127.271 525.399 136.933 518.785 143.922Z" fill="#10160C"/>
<path d="M690.144 74.9802C686.825 65.9555 680.644 58.2501 672.534 53.0274C664.268 47.5964 654.348 44.8809 642.775 44.8809C631.777 44.7311 620.955 47.6348 611.525 53.2661C602.265 58.8629 595.035 66.9631 589.835 77.5665C584.635 88.17 582.022 100.627 581.995 114.937C581.995 129.254 584.602 141.711 589.815 152.308C595.028 162.905 602.258 171.005 611.505 176.608C620.932 182.246 631.756 185.151 642.755 184.994C654.328 184.994 664.248 182.238 672.514 176.728C680.613 171.44 686.787 163.701 690.124 154.655V183.263H724.844V46.6117H690.144V74.9802ZM679.854 143.674C672.988 150.836 664.264 154.413 653.684 154.407C642.771 154.407 634.011 150.912 627.405 143.923C620.798 136.933 617.491 127.271 617.485 114.937C617.485 102.603 620.791 92.9013 627.405 85.8324C634.018 78.7634 642.778 75.2289 653.684 75.2289C664.264 75.2289 672.988 78.8032 679.854 85.9517C686.721 93.1003 690.151 102.762 690.144 114.937C690.144 126.94 686.714 136.519 679.854 143.674Z" fill="#10160C"/>
<path d="M791.563 0.726107H756.594V183.262H791.563V0.726107Z" fill="#10160C"/>
<path d="M858.273 9.11143H858.263V0H823.303V183.262H917.042V156.625H858.273V9.11143Z" fill="#10160C"/>
<path d="M1035.21 53.2659C1025.04 47.689 1013.17 44.894 999.622 44.8807C986.228 44.8807 974.325 47.6757 963.912 53.2659C953.57 58.7917 945.112 67.2498 939.612 77.5664C933.825 88.1764 930.932 100.633 930.932 114.937C930.932 129.241 933.825 141.658 939.612 152.188C945.158 162.471 953.604 170.918 963.912 176.489C974.332 182.158 986.235 184.993 999.622 184.993C1010.34 185.137 1020.96 182.947 1030.74 178.577C1039.72 174.589 1047.59 168.497 1053.68 160.822C1059.6 153.339 1063.6 144.534 1065.34 135.169H1028.39C1027.1 141.606 1023.43 147.326 1018.1 151.203C1012.72 155.142 1005.98 157.132 997.892 157.172C988.792 157.172 981.185 154.294 975.072 148.538C968.958 142.782 965.652 133.83 965.152 121.681H1065.83C1066.61 117.778 1067.02 113.812 1067.07 109.834C1067.07 97.3408 1064.3 86.2003 1058.77 76.4125C1053.28 66.6358 1045.11 58.6098 1035.21 53.2659ZM1031.86 106.303H965.152C965.819 95.1227 969.372 86.6545 975.812 80.8986C982.252 75.1426 990.188 72.2646 999.622 72.2646C1008.88 72.2646 1016.69 75.1426 1023.06 80.8986C1029.43 86.6545 1032.36 95.1227 1031.86 106.303Z" fill="#10160C"/>
<path d="M1192.92 123.452C1188.41 118.082 1182.61 113.926 1176.06 111.366C1167.78 108.311 1159.28 105.877 1150.64 104.085C1143.2 102.275 1137.5 100.713 1133.53 99.4C1129.89 98.2683 1126.52 96.4215 1123.61 93.969C1122.3 92.8418 1121.26 91.4376 1120.57 89.8593C1119.88 88.281 1119.55 86.5685 1119.61 84.8476C1119.52 82.7022 1119.93 80.565 1120.79 78.5983C1121.66 76.6317 1122.96 74.8874 1124.61 73.4981C1127.94 70.7063 1132.57 69.3072 1138.5 69.3005C1145.94 69.3005 1151.97 71.2899 1156.6 75.2687C1161.31 79.3527 1164.47 84.9277 1165.53 91.0545H1198.27C1195.79 77.0823 1189.51 65.8987 1179.42 57.5035C1169.33 49.1082 1155.94 44.9139 1139.25 44.9206C1123.21 44.9206 1110.64 48.6209 1101.55 56.0214C1092.46 63.4219 1087.91 73.0373 1087.91 84.8675C1087.91 94.0784 1090.18 101.313 1094.73 106.572C1099.11 111.722 1104.75 115.67 1111.1 118.041C1119.24 120.938 1127.56 123.287 1136.02 125.073C1143.46 126.883 1149.21 128.445 1153.26 129.758C1157.02 130.908 1160.48 132.844 1163.42 135.438C1164.77 136.647 1165.83 138.135 1166.54 139.796C1167.25 141.458 1167.58 143.253 1167.52 145.056C1167.59 147.155 1167.21 149.244 1166.4 151.181C1165.58 153.117 1164.35 154.856 1162.8 156.277C1159.66 159.155 1155.11 160.594 1149.16 160.594C1140.9 160.594 1134.21 158.661 1129.08 154.795C1126.56 152.909 1124.46 150.519 1122.92 147.778C1121.38 145.036 1120.44 142.005 1120.15 138.879H1086.67C1088.99 153.68 1095.52 165.066 1106.26 173.037C1117 181.008 1131.3 184.987 1149.16 184.974C1164.7 184.974 1177.06 181.356 1186.24 174.121C1195.42 166.887 1200.01 157.43 1200 145.753C1199.99 136.396 1197.63 128.962 1192.92 123.452Z" fill="#10160C"/>
</svg>
