<?xml version="1.0" encoding="utf-8"?><svg viewBox="0 0 339 171" xmlns="http://www.w3.org/2000/svg" xmlns:xlink="http://www.w3.org/1999/xlink"><style>:root>svg{display:none}:root>svg:target{display:block}</style><svg fill="none" viewBox="0 0 92 92" id="arr" xmlns="http://www.w3.org/2000/svg"><path d="M72.683 30.122l-59.93 59.734-11.04-11.04 59.93-59.735 1.948-1.941-2.753-.003-53.216-.043.013-15.597 82.64.067-.066 82.506-15.623-.012.043-53.13.002-2.748-1.948 1.942z" fill="#00B461" stroke="#00B461" stroke-width="2.279"/></svg><svg fill="none" viewBox="0 0 16 17" id="btn-arr" xmlns="http://www.w3.org/2000/svg"><path d="M1.429.929V3.91h9.052L.375 14.017l2.108 2.108L12.59 6.02v9.052h2.981V.929H1.43z" fill="#F5F5F5"/></svg><svg fill="none" viewBox="0 0 25 18" id="burger" xmlns="http://www.w3.org/2000/svg"><path fill="#00B461" d="M0 0h25v2H0zM0 8h25v2H0zM0 16h25v2H0z"/></svg><svg fill="none" viewBox="0 0 20 20" id="close" xmlns="http://www.w3.org/2000/svg"><path d="M1.526.556L20 18.56 18.522 20 .048 1.996 1.526.556z" fill="#00B461"/><path d="M0 18.004L18.474 0l1.478 1.44L1.478 19.444 0 18.004z" fill="#00B461"/></svg><svg fill="none" viewBox="0 0 151 150" id="green-arr" xmlns="http://www.w3.org/2000/svg"><path d="M120.327 49.823L21.54 148.449 2.197 129.138l98.787-98.627 1.709-1.706H12.162V1.5h137.224v137.002h-27.35V48.117l-1.709 1.706z" fill="#00B461" stroke="#00B461" stroke-width="2"/></svg><svg fill="none" viewBox="0 0 339 50" id="logo" xmlns="http://www.w3.org/2000/svg"><path d="M53.151 25.325l1.39 2.46H41.547l1.39-2.46H40.93l7.116-13.52 7.119 13.52H53.15zM78.906 45.951L65.371 27.785H63.96l4.873-9.248 5.866 11.14h-1.66l5.678 10.032h-2.668l2.857 6.242zM38.269 39.924h-4.402v4.407h4.402v-4.407zM79.633 49.662l-.048.194-.015.057v.069H49.395l-.057-.07-14.903-20.005-.192-.256-.184-.257H64.55l13.905 18.66 1.177 1.608zM35.219 33.71l-12.13 16.287h-3.995l14.13-18.968 1.995 2.68zM32.914 28.72l-.596.797-.116.152-15.143 20.33H5.897a1.364 1.364 0 01-.026-.14L6 49.585l5.654-12.347H7.584l8.658-15.3h-2.525L19.371 11.2l.56-1.068.687-1.305a40.121 40.121 0 012.863-1.71l.13-.068.116-.059.035.07.205.391.679 1.294 6.95 13.195h-2.523l3.306 5.848.102.177.433.755z" fill="#00B461"/><path d="M113.864 28.99h11.928c-.533 2.665-1.705 4.746-3.518 6.242-1.813 1.496-3.984 2.246-6.512 2.247-3.426 0-6.13-1.032-8.11-3.095-1.98-2.064-2.969-4.943-2.968-8.639 0-2.332.433-4.363 1.299-6.093a9.422 9.422 0 013.641-3.995 10.341 10.341 0 015.377-1.397c2.063 0 3.85.474 5.362 1.422a8.385 8.385 0 013.329 3.821h7.385c-.797-3.588-2.61-6.442-5.439-8.564-2.828-2.122-6.388-3.178-10.678-3.17-3.46 0-6.504.769-9.131 2.306a15.883 15.883 0 00-6.112 6.366c-1.446 2.714-2.17 5.82-2.172 9.315-.001 3.495.722 6.6 2.172 9.312a15.625 15.625 0 006.145 6.342c2.645 1.516 5.697 2.272 9.157 2.27 3.027 0 5.713-.59 8.059-1.77a15.684 15.684 0 005.687-4.72 16.607 16.607 0 002.919-6.442v-6.802H113.87l-.006 5.044zM144.003 6.419h-7.036V43.37h7.036V6.419zM170.424 17.053a16.374 16.374 0 00-14.521 0 12.438 12.438 0 00-5.063 4.918c-1.232 2.147-1.848 4.67-1.846 7.567.002 2.897.617 5.41 1.846 7.539a12.617 12.617 0 005.063 4.918 16.146 16.146 0 0014.521 0 12.623 12.623 0 005.065-4.915c1.229-2.13 1.845-4.644 1.847-7.54.001-2.895-.614-5.418-1.847-7.567a12.441 12.441 0 00-5.065-4.92zm-2.271 18.502a7.04 7.04 0 01-9.986 0c-1.366-1.38-2.049-3.386-2.049-6.017 0-2.63.683-4.637 2.049-6.017a7.035 7.035 0 017.696-1.537 7.04 7.04 0 012.29 1.537c1.366 1.38 2.049 3.386 2.049 6.017 0 2.63-.683 4.637-2.049 6.02v-.003zM205.129 17.053a11.89 11.89 0 00-6.289-1.696c-2.328 0-4.316.55-5.961 1.648a9.012 9.012 0 00-3.519 4.443V6.418h-7.034v36.953h7.034v-5.792a9.15 9.15 0 003.519 4.47c1.647 1.113 3.634 1.671 5.961 1.673a11.866 11.866 0 006.289-1.7 11.46 11.46 0 004.366-4.917c1.046-2.147 1.57-4.669 1.572-7.564.002-2.896-.522-5.419-1.572-7.568a11.492 11.492 0 00-4.366-4.92zm-3.193 18.35c-1.332 1.417-3.095 2.124-5.29 2.123-2.129 0-3.884-.724-5.265-2.171-1.381-1.447-2.071-3.386-2.069-5.817 0-2.465.689-4.421 2.069-5.868 1.379-1.447 3.134-2.172 5.265-2.173 2.195 0 3.958.715 5.29 2.147 1.331 1.432 1.996 3.396 1.995 5.894 0 2.498-.665 4.454-1.995 5.868v-.002zM236.415 21.45a8.968 8.968 0 00-3.544-4.443c-1.664-1.1-3.66-1.65-5.987-1.648a11.89 11.89 0 00-6.289 1.697 11.506 11.506 0 00-4.366 4.917c-1.046 2.148-1.569 4.67-1.569 7.568 0 2.897.523 5.418 1.569 7.564a11.48 11.48 0 004.366 4.918 11.869 11.869 0 006.289 1.699c2.329 0 4.324-.558 5.987-1.674a9.095 9.095 0 003.544-4.469v5.792h6.985V15.708h-6.985v5.743zm-2.072 13.908c-1.381 1.447-3.135 2.17-5.264 2.17-2.196 0-3.958-.707-5.288-2.122-1.33-1.414-1.996-3.37-1.997-5.865 0-2.498.665-4.463 1.997-5.894 1.331-1.432 3.094-2.148 5.288-2.148 2.127 0 3.882.725 5.264 2.173 1.383 1.449 2.074 3.405 2.072 5.869 0 2.429-.69 4.368-2.072 5.817zM256.824 6.419h-7.037V43.37h7.037V6.419zM270.244 8.118h-.003V6.273h-7.031V43.37h18.859v-5.392h-11.825V8.118zM305.847 17.053c-2.048-1.129-4.438-1.695-7.169-1.696-2.694 0-5.089.565-7.186 1.696a11.916 11.916 0 00-4.87 4.92c-1.166 2.148-1.748 4.67-1.746 7.568.001 2.897.583 5.41 1.746 7.539a12.083 12.083 0 004.888 4.917c2.097 1.152 4.492 1.726 7.185 1.725 2.158.029 4.296-.415 6.264-1.3a12.23 12.23 0 004.609-3.587 11.894 11.894 0 002.346-5.192h-7.426a5.317 5.317 0 01-2.072 3.244c-1.081.8-2.436 1.2-4.066 1.2a6.419 6.419 0 01-4.592-1.748c-1.229-1.167-1.894-2.981-1.994-5.443h20.257a13.566 13.566 0 00-1.416-9.164 11.956 11.956 0 00-4.758-4.679zm-.673 10.737h-13.431c.133-2.265.849-3.98 2.146-5.145 1.297-1.165 2.894-1.747 4.789-1.745a6.757 6.757 0 014.716 1.745c1.281 1.168 1.874 2.884 1.78 5.148v-.003zM337.579 31.263a8.476 8.476 0 00-3.393-2.448 35.606 35.606 0 00-5.121-1.473c-1.495-.366-2.643-.682-3.442-.948a5.76 5.76 0 01-1.997-1.1 2.324 2.324 0 01-.796-1.848 2.848 2.848 0 01.996-2.305c.666-.568 1.597-.85 2.794-.849 1.498 0 2.713.4 3.643 1.197a5.502 5.502 0 011.793 3.195h6.586c-.499-2.829-1.763-5.092-3.792-6.79-2.03-1.698-4.725-2.547-8.084-2.545-3.227 0-5.755.748-7.585 2.245a7.193 7.193 0 00-2.745 5.843c0 1.865.457 3.33 1.372 4.394a7.991 7.991 0 003.293 2.322 38.817 38.817 0 005.017 1.425c1.495.365 2.651.681 3.467.948a5.548 5.548 0 012.048 1.148 2.502 2.502 0 01.822 1.947 2.943 2.943 0 01-.947 2.273c-.632.581-1.547.873-2.745.874-1.663 0-3.01-.39-4.041-1.173a4.553 4.553 0 01-1.792-3.221h-6.735c.466 2.994 1.78 5.3 3.941 6.918 2.161 1.618 5.038 2.425 8.632 2.422 3.127 0 5.615-.733 7.462-2.199a6.983 6.983 0 002.768-5.742c.003-1.888-.47-3.391-1.419-4.51zM84.097 44.027a13.713 13.713 0 01-.956 1.514 39.946 39.946 0 01-.55 4.456h-3.037v-.069l.015-.056.05-.195c.137-.743.255-1.502.347-2.263.193-1.536.29-3.082.29-4.63 0-20.71-16.842-37.565-37.537-37.565a37.27 37.27 0 00-16.17 3.67l-1.386-2.637c.482-.232.968-.457 1.46-.674-.797-.96-2.164-1.407-2.62-1.537L23.847 4s.038-.02.113-.052c.622-.274 3.802-1.553 7.17-.932.582.108 1.158.253 1.723.435a40.044 40.044 0 016.038-1.025c-.556-1.41-2.151-2.36-2.151-2.36s3.869-.512 7.229 1.317c.526.287 1.033.607 1.518.959 2.042.133 4.07.425 6.066.873-.092-1.46-1.24-2.818-1.31-2.898.137.028 3.884.769 6.467 3.483.408.434.788.893 1.137 1.376a40.189 40.189 0 015.485 2.708c.377-1.43-.315-3.093-.348-3.177.11.059 3.452 1.927 5.073 5.317.263.548.489 1.113.676 1.691a40.937 40.937 0 014.353 4.257c.827-1.281.655-3.14.655-3.14s2.684 2.837 3.188 6.627c.076.595.114 1.195.116 1.794a40.735 40.735 0 012.844 5.4c1.163-.966 1.57-2.776 1.57-2.776s1.68 3.526.986 7.286c-.11.585-.255 1.162-.435 1.73a40.055 40.055 0 011.024 6.037c1.406-.554 2.356-2.15 2.356-2.15s.522 3.89-1.293 7.247zM18.877 8.633l-.256.494-.97 1.838-4.764 9.058a37.456 37.456 0 00-7.313 17.461c-.061.46-.12.92-.164 1.387a37.38 37.38 0 00.026 8.034c.105.996.256 1.983.443 2.954.006.047.014.093.025.138H2.888a38.65 38.65 0 01-.466-3.403c-1.408.551-2.356 2.15-2.356 2.15s-.512-3.877 1.314-7.236c.29-.523.61-1.029.957-1.515.138-2.037.429-4.062.871-6.055-1.46.087-2.817 1.243-2.896 1.314.026-.14.768-3.887 3.482-6.473.433-.41.893-.79 1.376-1.14a40.503 40.503 0 012.711-5.491c-1.426-.38-3.093.315-3.175.348.064-.11 1.926-3.454 5.313-5.079.55-.262 1.116-.487 1.696-.674a40.701 40.701 0 014.253-4.356c-1.28-.825-3.14-.654-3.14-.654s2.553-2.424 6.049-3.1z" fill="#10160C"/></svg><svg fill="none" viewBox="0 0 171 171" id="services-arr" xmlns="http://www.w3.org/2000/svg"><path d="M136.711 56.394L24.148 168.774 2.108 146.77 114.67 34.389l1.946-1.944H13.461V1.331h156.362v156.108h-31.165V54.45l-1.947 1.944z" fill="#00B461" stroke="#00B461" stroke-width="2.279"/></svg><svg fill="none" viewBox="0 0 40 40" id="slider-arr" xmlns="http://www.w3.org/2000/svg"><path d="M20 0l-4.216 4.216 12.801 12.802H0v5.964h28.585L15.783 35.783 20 40l20-20L20 0z" fill="#F5F5F5"/></svg></svg>