<svg width="1135" height="645" viewBox="0 0 1135 645" fill="none" xmlns="http://www.w3.org/2000/svg">
<g opacity="0.03">
<path d="M705.943 326.691L724.417 358.414H551.818L570.278 326.691H543.62L638.139 152.299L732.658 326.691H705.943Z" fill="#10160C"/>
<path d="M1047.97 592.722L868.223 358.415H849.494L914.175 239.117L992.086 382.815H970.064L1045.46 512.239H1010.04L1047.97 592.722Z" fill="#10160C"/>
<path d="M508.282 515H449.821V571.866H508.282V515Z" fill="#10160C"/>
<path d="M1057.64 640.604V640.741L1056.82 643.983L1056.67 644.712V644.862H656.046L655.297 643.983L457.397 385.907L454.825 382.637L452.365 379.435H857.339L1057.64 640.604Z" fill="#10160C"/>
<path d="M467.786 434.818L306.678 644.945H253.659L441.298 400.264L467.786 434.818Z" fill="#10160C"/>
<path d="M78.3753 644.931H77.1737L78.0219 643.145C78.1067 643.722 78.2339 644.368 78.3753 644.931Z" fill="#10160C"/>
<path d="M78.0219 643.145L77.1737 644.931H78.3753C78.2339 644.368 78.1067 643.722 78.0219 643.145Z" fill="#10160C"/>
<path d="M1116.92 567.923C1113.11 574.692 1108.87 581.217 1104.2 587.46C1102.86 606.734 1100.41 625.921 1096.88 644.931H1056.55V644.78L1056.71 644.052L1057.53 640.81V640.672C1059.38 631.055 1060.95 621.286 1062.15 611.477C1064.7 591.665 1065.98 571.718 1065.98 551.752C1065.98 284.594 842.342 67.2127 567.478 67.2127C493.154 67.1229 419.762 83.2952 352.744 114.53L349.917 109.31L334.326 80.6359C340.743 77.6545 347.189 74.7417 353.733 71.9664C343.146 59.6011 324.997 53.8033 318.933 52.1683C317.604 51.7836 316.855 51.6325 316.855 51.6325C316.855 51.6325 317.393 51.3715 318.354 50.973C326.637 47.4421 368.857 30.9276 413.579 38.9238C421.323 40.3273 428.966 42.2087 436.464 44.5568C462.797 38.1317 489.6 33.6855 516.636 31.2574C509.257 13.0804 488.069 0.825046 488.069 0.825046C488.069 0.825046 539.477 -5.67361 584.087 17.8066C591.075 21.5059 597.812 25.6361 604.257 30.1719C631.281 31.9128 658.127 35.6746 684.556 41.4242C683.327 22.5878 668.075 5.1391 667.128 4.03997C668.98 4.38345 718.706 13.9321 753.011 48.9533C758.446 54.5417 763.502 60.4666 768.149 66.6906C793.312 76.5749 817.67 88.2958 841.013 101.753C846.003 83.3425 836.773 61.9095 836.391 60.7966C837.805 61.5522 882.216 85.6232 903.758 129.369C907.245 136.439 910.243 143.728 912.733 151.187C933.377 168.093 952.705 186.462 970.559 206.143C981.57 189.656 979.265 165.654 979.265 165.654C979.265 165.654 1014.91 202.255 1021.6 251.139C1022.63 258.83 1023.14 266.576 1023.15 274.331C1037.52 296.599 1050.15 319.883 1060.94 343.988C1076.37 331.527 1081.8 308.171 1081.8 308.171C1081.8 308.171 1104.09 353.675 1094.9 402.146C1093.43 409.7 1091.49 417.161 1089.09 424.486C1095.69 450.062 1100.27 476.091 1102.77 502.346C1121.46 495.215 1134.07 474.607 1134.07 474.607C1134.07 474.607 1141.02 524.604 1116.92 567.923Z" fill="#10160C"/>
<path d="M78.3753 644.931H77.1737L78.0219 643.145C78.1067 643.722 78.2339 644.368 78.3753 644.931Z" fill="#10160C"/>
<path d="M437.184 370.532L429.255 380.809L427.728 382.746L226.605 645H78.3742C78.247 644.409 78.1198 643.777 78.035 643.186L79.717 639.655L154.815 480.391H100.792L215.764 283.041H182.208L273.858 113.967C276.628 112.19 279.403 110.464 282.183 108.787C291.851 102.88 301.731 97.2327 311.866 91.9294L313.59 91.0363L315.117 90.2807L315.583 91.1738L318.325 96.2298L322.566 104.02L327.386 112.909L333.449 124.12L419.671 283.124H386.158L430.075 358.566L431.488 360.833L437.184 370.532Z" fill="#10160C"/>
<path d="M250.748 111.343L247.285 117.746L234.394 141.459L171.155 258.242C119.446 323.981 85.9964 401.54 74.0214 483.469C73.2158 489.418 72.4104 495.339 71.8308 501.33C68.1212 535.791 68.2349 570.54 72.1701 604.978C73.5835 617.824 75.5905 630.56 78.05 643.077C78.1348 643.654 78.262 644.299 78.4034 644.863H38.3454C35.6174 630.423 33.5822 615.804 32.1404 600.966C13.4684 608.083 0.845928 628.692 0.845928 628.692C0.845928 628.692 -5.82553 578.681 18.3025 535.362C22.1559 528.619 26.4033 522.096 31.0237 515.824C32.8567 489.539 36.7216 463.425 42.5858 437.703C23.2212 438.844 5.25607 453.723 4.13943 454.658C4.47866 452.844 14.3164 404.51 50.3882 371.151C56.1366 365.866 62.2375 360.955 68.6505 356.45C78.7798 331.983 90.82 308.306 104.666 285.624C85.7253 280.733 63.5619 289.746 62.5018 290.117C63.3216 288.743 88.0714 245.547 133.048 224.609C140.346 221.227 147.869 218.321 155.565 215.912C172.906 195.783 191.782 176.953 212.033 159.581C195.071 148.933 170.35 151.159 170.35 151.159C170.35 151.159 204.344 120.081 250.748 111.343Z" fill="#10160C"/>
</g>
</svg>
