<svg width="794" height="451" viewBox="0 0 794 451" fill="none" xmlns="http://www.w3.org/2000/svg">
<g opacity="0.03">
<path d="M493.613 228.43L506.531 250.612H385.845L398.753 228.43H380.112L446.203 106.491L512.292 228.43H493.613Z" fill="#10160C"/>
<path d="M732.77 414.446L607.083 250.612H593.988L639.214 167.197L693.691 267.674H678.293L731.01 358.17H706.243L732.77 414.446Z" fill="#10160C"/>
<path d="M355.404 360.101H314.526V399.863H355.404V360.101Z" fill="#10160C"/>
<path d="M739.53 447.926V448.022L738.957 450.289L738.848 450.798V450.904H458.724L458.2 450.289L319.823 269.835L318.025 267.549L316.305 265.311H599.473L739.53 447.926Z" fill="#10160C"/>
<path d="M327.088 304.036L214.437 450.962H177.365L308.566 279.875L327.088 304.036Z" fill="#10160C"/>
<path d="M54.8019 450.952H53.9618L54.5549 449.703C54.6142 450.106 54.7031 450.558 54.8019 450.952Z" fill="#10160C"/>
<path d="M54.5549 449.703L53.9618 450.952H54.8019C54.7031 450.558 54.6142 450.106 54.5549 449.703Z" fill="#10160C"/>
<path d="M780.981 397.106C778.317 401.839 775.346 406.401 772.086 410.767C771.147 424.244 769.437 437.66 766.966 450.952H738.769V450.846L738.877 450.337L739.451 448.07V447.974C740.745 441.249 741.843 434.419 742.683 427.56C744.466 413.707 745.36 399.759 745.361 385.799C745.361 198.995 588.987 46.9968 396.795 46.9968C344.826 46.934 293.508 58.2421 246.647 80.0826L244.67 76.4319L233.769 56.3826C238.256 54.2979 242.763 52.2612 247.339 50.3207C239.936 41.6746 227.246 37.6206 223.006 36.4774C222.077 36.2084 221.553 36.1027 221.553 36.1027C221.553 36.1027 221.929 35.9202 222.601 35.6416C228.392 33.1727 257.914 21.6253 289.185 27.2165C294.599 28.1978 299.944 29.5134 305.186 31.1552C323.599 26.6626 342.341 23.5537 361.245 21.8559C356.085 9.14616 341.27 0.576893 341.27 0.576893C341.27 0.576893 377.216 -3.96713 408.408 12.4508C413.294 15.0374 418.005 17.9254 422.511 21.0969C441.407 22.3142 460.179 24.9446 478.659 28.9648C477.799 15.794 467.135 3.59339 466.473 2.82484C467.767 3.06501 502.537 9.74166 526.524 34.2293C530.324 38.1369 533.86 42.2797 537.109 46.6317C554.704 53.5431 571.735 61.7386 588.057 71.1482C591.546 58.2751 585.092 43.2886 584.825 42.5105C585.814 43.0389 616.867 59.8698 631.93 90.4578C634.368 95.4019 636.465 100.498 638.206 105.713C652.641 117.535 666.155 130.379 678.639 144.14C686.338 132.612 684.727 115.829 684.727 115.829C684.727 115.829 709.652 141.422 714.327 175.603C715.045 180.98 715.408 186.396 715.415 191.819C725.461 207.389 734.292 223.67 741.833 240.525C752.625 231.812 756.42 215.48 756.42 215.48C756.42 215.48 772.006 247.298 765.582 281.191C764.554 286.473 763.198 291.689 761.52 296.811C766.134 314.695 769.333 332.895 771.088 351.253C784.153 346.267 792.969 331.857 792.969 331.857C792.969 331.857 797.832 366.816 780.981 397.106Z" fill="#10160C"/>
<path d="M54.8019 450.952H53.9618L54.5549 449.703C54.6142 450.106 54.7031 450.558 54.8019 450.952Z" fill="#10160C"/>
<path d="M305.69 259.085L300.146 266.271L299.078 267.626L158.448 451H54.8012C54.7123 450.587 54.6233 450.145 54.564 449.732L55.7401 447.263L108.25 335.901H70.4763L150.867 197.91H127.404L191.488 79.6886C193.425 78.4461 195.365 77.2389 197.309 76.0668C204.069 71.9359 210.978 67.9875 218.064 64.2793L219.27 63.6548L220.337 63.1265L220.664 63.751L222.581 67.2862L225.546 72.7333L228.916 78.9489L233.156 86.788L293.445 197.967H270.011L300.719 250.718L301.707 252.303L305.69 259.085Z" fill="#10160C"/>
<path d="M175.329 77.8538L172.908 82.3306L163.894 98.9119L119.676 180.569C83.5193 226.535 60.1308 280.766 51.7576 338.053C51.1943 342.213 50.6311 346.353 50.2259 350.542C47.632 374.638 47.7115 398.936 50.4631 423.015C51.4514 431.998 52.8548 440.904 54.5745 449.655C54.6338 450.059 54.7227 450.51 54.8216 450.904H26.8121C24.9046 440.807 23.4815 430.586 22.4734 420.21C9.41746 425.187 0.591494 439.597 0.591494 439.597C0.591494 439.597 -4.07335 404.628 12.7975 374.338C15.492 369.623 18.4619 365.062 21.6925 360.677C22.9742 342.298 25.6766 324.038 29.7771 306.053C16.2369 306.85 3.67518 317.255 2.89439 317.908C3.13159 316.64 10.0104 282.843 35.2327 259.518C39.2521 255.822 43.518 252.389 48.0022 249.239C55.0848 232.131 63.5036 215.575 73.1849 199.716C59.9412 196.296 44.444 202.598 43.7028 202.857C44.276 201.896 61.5817 171.693 93.0305 157.052C98.1337 154.687 103.394 152.655 108.775 150.971C120.9 136.897 134.099 123.73 148.259 111.583C136.399 104.138 119.113 105.694 119.113 105.694C119.113 105.694 142.882 83.9637 175.329 77.8538Z" fill="#10160C"/>
</g>
</svg>
