<svg width="339" height="50" viewBox="0 0 339 50" fill="none" xmlns="http://www.w3.org/2000/svg">
<path d="M53.151 25.3251L54.5415 27.7851H41.5461L42.9366 25.3251H40.929L48.0451 11.805L55.1637 25.3251H53.151Z" fill="#00B461"/>
<path d="M78.9063 45.951L65.3706 27.7851H63.9597L68.8326 18.5369L74.6991 29.6763H73.0398L78.7168 39.7087H76.0486L78.9063 45.951Z" fill="#00B461"/>
<path d="M38.2686 39.9239H33.8668V44.3315H38.2686V39.9239Z" fill="#00B461"/>
<path d="M79.6335 49.6616L79.5848 49.8564L79.5695 49.9128V49.9819H49.3946L49.3383 49.9128L34.4353 29.9069L34.2432 29.6506L34.0589 29.3944H64.5512L78.4556 48.0549L79.6335 49.6616Z" fill="#00B461"/>
<path d="M35.2189 33.7097L23.089 49.9973H19.0944L33.2241 31.0293L35.2189 33.7097Z" fill="#00B461"/>
<path d="M32.9142 28.7204L32.3176 29.5174L32.2024 29.6686L17.0586 49.9999H5.89669C5.88569 49.9534 5.87715 49.9063 5.87109 49.8589L5.99913 49.5848L11.6531 37.2384H7.58419L16.2418 21.9374H13.717L19.3709 11.2003L19.9317 10.1317L20.6179 8.82734C20.8279 8.68896 21.0353 8.5557 21.2453 8.42501C21.9725 7.96888 22.7177 7.53069 23.4808 7.11812L23.6114 7.04892L23.7266 6.98999L23.7624 7.05918L23.9673 7.45125L24.6459 8.74533L31.5955 21.9399H29.0732L32.3791 27.7877L32.4815 27.9645L32.9142 28.7204Z" fill="#00B461"/>
<path d="M113.864 28.9896H125.792C125.259 31.6547 124.087 33.7355 122.274 35.232C120.461 36.7285 118.29 37.4776 115.762 37.4793C112.336 37.4793 109.632 36.4475 107.652 34.3838C105.672 32.3201 104.683 29.4406 104.684 25.7454C104.684 23.4135 105.117 21.3822 105.983 19.6517C106.781 17.9928 108.046 16.6039 109.624 15.6566C111.256 14.7093 113.115 14.2263 115.001 14.2601C117.064 14.2601 118.851 14.7341 120.363 15.6823C121.84 16.582 123.003 17.9165 123.692 19.503H131.077C130.28 15.9155 128.467 13.0608 125.638 10.939C122.81 8.8172 119.25 7.76056 114.96 7.7691C111.5 7.7691 108.456 8.53787 105.829 10.0754C103.232 11.5768 101.112 13.7838 99.7168 16.4408C98.2708 19.1554 97.547 22.2603 97.5453 25.7557C97.5436 29.251 98.2674 32.3551 99.7168 35.068C101.113 37.7295 103.247 39.9315 105.862 41.4103C108.507 42.9256 111.559 43.6824 115.019 43.6807C118.046 43.6807 120.732 43.0905 123.078 41.91C125.322 40.8125 127.272 39.1942 128.765 37.1898C130.189 35.2771 131.185 33.0798 131.684 30.7475V23.9465H113.87L113.864 28.9896Z" fill="#10160C"/>
<path d="M144.003 6.41865H136.967V43.3707H144.003V6.41865Z" fill="#10160C"/>
<path d="M170.424 17.0532C168.167 15.9366 165.682 15.3558 163.164 15.3558C160.645 15.3558 158.161 15.9366 155.903 17.0532C153.776 18.1688 152.018 19.8768 150.84 21.9708C149.608 24.1182 148.992 26.6406 148.994 29.538C148.996 32.4354 149.611 34.9484 150.84 37.077C152.026 39.1648 153.782 40.8708 155.903 41.9946C158.155 43.1285 160.642 43.7191 163.164 43.7191C165.685 43.7191 168.172 43.1285 170.424 41.9946C172.545 40.8715 174.302 39.1665 175.489 37.0796C176.718 34.9493 177.334 32.4363 177.336 29.5406C177.337 26.6449 176.722 24.1225 175.489 21.9733C174.311 19.8783 172.552 18.1695 170.424 17.0532ZM168.153 35.5549C167.499 36.2131 166.72 36.7355 165.863 37.0919C165.007 37.4484 164.088 37.6319 163.16 37.6319C162.232 37.6319 161.313 37.4484 160.456 37.0919C159.599 36.7355 158.821 36.2131 158.167 35.5549C156.801 34.1745 156.118 32.1689 156.118 29.538C156.118 26.9071 156.801 24.9015 158.167 23.5211C158.821 22.8629 159.599 22.3405 160.456 21.9841C161.313 21.6276 162.232 21.4441 163.16 21.4441C164.088 21.4441 165.007 21.6276 165.863 21.9841C166.72 22.3405 167.499 22.8629 168.153 23.5211C169.519 24.9015 170.202 26.9071 170.202 29.538C170.202 32.1689 169.519 34.1754 168.153 35.5574V35.5549Z" fill="#10160C"/>
<path d="M205.129 17.0532C203.231 15.9132 201.053 15.3257 198.84 15.3568C196.512 15.3568 194.524 15.9061 192.879 17.0046C191.259 18.0681 190.025 19.6265 189.36 21.448V6.41865H182.326V43.3707H189.36V37.5793C190.029 39.4054 191.261 40.9708 192.879 42.0484C194.526 43.1622 196.513 43.72 198.84 43.7217C201.054 43.7532 203.232 43.1647 205.129 42.0228C207.033 40.8458 208.551 39.1362 209.495 37.1052C210.541 34.9578 211.065 32.4363 211.067 29.5406C211.069 26.6449 210.545 24.1225 209.495 21.9733C208.55 19.9425 207.032 18.2323 205.129 17.0532ZM201.936 35.4037C200.604 36.8199 198.841 37.5272 196.646 37.5255C194.517 37.5255 192.762 36.802 191.381 35.355C190 33.908 189.31 31.969 189.312 29.538C189.312 27.0728 190.001 25.1167 191.381 23.6698C192.76 22.2228 194.515 21.4984 196.646 21.4967C198.841 21.4967 200.604 22.2125 201.936 23.6441C203.267 25.0757 203.932 27.0404 203.931 29.538C203.931 32.0356 203.266 33.9917 201.936 35.4062V35.4037Z" fill="#10160C"/>
<path d="M236.415 21.4506C235.746 19.624 234.503 18.0645 232.871 17.0071C231.207 15.9069 229.211 15.3577 226.884 15.3594C224.671 15.3283 222.493 15.9158 220.595 17.0558C218.693 18.2349 217.175 19.9439 216.229 21.9734C215.183 24.1208 214.66 26.6432 214.66 29.5406C214.66 32.438 215.183 34.9595 216.229 37.1052C217.174 39.1357 218.692 40.8451 220.595 42.0228C222.492 43.1647 224.671 43.7532 226.884 43.7217C229.213 43.7217 231.208 43.164 232.871 42.0484C234.501 40.9775 235.743 39.4108 236.415 37.5793V43.3707H243.4V15.7079H236.415V21.4506ZM234.343 35.3576C232.962 36.8046 231.208 37.528 229.079 37.528C226.883 37.528 225.121 36.8208 223.791 35.4062C222.461 33.9917 221.795 32.0365 221.794 29.5406C221.794 27.0429 222.459 25.0783 223.791 23.6467C225.122 22.2151 226.885 21.4993 229.079 21.4993C231.206 21.4993 232.961 22.2236 234.343 23.6723C235.726 25.121 236.417 27.0771 236.415 29.5406C236.415 31.9699 235.725 33.9089 234.343 35.3576Z" fill="#10160C"/>
<path d="M256.824 6.41865H249.787V43.3707H256.824V6.41865Z" fill="#10160C"/>
<path d="M270.244 8.11762H270.241V6.27258H263.21V43.3707H282.069V37.979H270.244V8.11762Z" fill="#10160C"/>
<path d="M305.847 17.0532C303.799 15.924 301.409 15.3585 298.678 15.3568C295.984 15.3568 293.589 15.9223 291.492 17.0532C289.418 18.1748 287.723 19.8871 286.622 21.9733C285.456 24.1208 284.874 26.6432 284.876 29.5406C284.877 32.438 285.459 34.951 286.622 37.0796C287.736 39.1615 289.436 40.8711 291.51 41.9971C293.607 43.1486 296.002 43.7234 298.695 43.7217C300.853 43.7509 302.991 43.3075 304.959 42.4225C306.762 41.6166 308.344 40.3856 309.568 38.8349C310.759 37.3202 311.564 35.5384 311.914 33.6432H304.488C304.227 34.9457 303.487 36.1031 302.416 36.8874C301.335 37.6869 299.98 38.0867 298.35 38.0867C296.648 38.1363 294.997 37.5077 293.758 36.339C292.529 35.1722 291.864 33.3579 291.764 30.8962H312.021C312.179 30.106 312.264 29.3032 312.277 28.4976C312.318 26.1353 311.742 23.8032 310.605 21.7325C309.495 19.7526 307.845 18.1297 305.847 17.0532ZM305.174 27.7903H291.743C291.876 25.525 292.592 23.8098 293.889 22.6447C295.186 21.4796 296.783 20.8979 298.678 20.8996C300.415 20.8527 302.105 21.4777 303.394 22.6447C304.675 23.8133 305.268 25.5293 305.174 27.7929V27.7903Z" fill="#10160C"/>
<path d="M337.579 31.2626C336.67 30.1762 335.504 29.3349 334.186 28.8154C332.518 28.1969 330.806 27.7044 329.065 27.3419C327.57 26.9763 326.422 26.6603 325.623 26.3938C324.891 26.1642 324.212 25.7904 323.626 25.2944C323.364 25.0655 323.156 24.7807 323.019 24.461C322.881 24.1413 322.816 23.7948 322.83 23.4468C322.809 23.0119 322.888 22.5779 323.061 22.1782C323.234 21.7785 323.495 21.4236 323.826 21.1405C324.492 20.5733 325.423 20.2906 326.62 20.2923C328.118 20.2923 329.333 20.6912 330.263 21.489C331.208 22.3178 331.841 23.4456 332.056 24.6845H338.642C338.143 21.8555 336.879 19.5919 334.85 17.8938C332.82 16.1957 330.125 15.3474 326.766 15.3492C323.539 15.3492 321.011 16.0974 319.181 17.5939C318.3 18.2864 317.593 19.1753 317.117 20.1897C316.64 21.2042 316.407 22.316 316.436 23.4366C316.436 25.3021 316.893 26.767 317.808 27.8314C318.69 28.874 319.823 29.6733 321.101 30.153C322.74 30.74 324.416 31.216 326.118 31.5778C327.613 31.9434 328.769 32.2594 329.585 32.5259C330.342 32.7582 331.04 33.1496 331.633 33.674C331.904 33.9193 332.117 34.2206 332.259 34.557C332.401 34.8933 332.468 35.2566 332.455 35.6215C332.471 36.0464 332.394 36.4695 332.23 36.8619C332.067 37.2543 331.82 37.6065 331.508 37.8945C330.876 38.4753 329.961 38.7666 328.763 38.7683C327.1 38.7683 325.753 38.3771 324.722 37.5947C324.215 37.2126 323.794 36.7286 323.485 36.1739C323.177 35.6191 322.987 35.0059 322.93 34.3736H316.195C316.661 37.3683 317.975 39.6746 320.136 41.2924C322.297 42.9103 325.174 43.7175 328.768 43.7141C331.895 43.7141 334.383 42.9812 336.23 41.5154C337.114 40.8473 337.826 39.9778 338.308 38.9791C338.789 37.9804 339.026 36.8812 338.998 35.7727C339.001 33.885 338.528 32.3816 337.579 31.2626Z" fill="#10160C"/>
<path d="M84.0967 44.0267C83.8116 44.5518 83.4926 45.0577 83.1415 45.5412C83.0417 47.0357 82.8579 48.5235 82.591 49.9974H79.5541V49.9282L79.5694 49.8719L79.6181 49.6771C79.7564 48.934 79.8741 48.1755 79.9663 47.4144C80.1587 45.8784 80.2553 44.3319 80.2557 42.7838C80.2557 22.0733 63.4142 5.21937 42.719 5.21937C37.1219 5.21272 31.5951 6.46691 26.5484 8.88895L25.1631 6.25208C25.6445 6.01975 26.131 5.79509 26.6227 5.57813C25.8263 4.61717 24.4589 4.17129 24.0031 4.0406L23.8469 3.9996C23.8469 3.9996 23.8853 3.97909 23.9596 3.94834C24.5818 3.67415 27.7621 2.39544 31.1294 3.01558C31.7125 3.12385 32.2882 3.26936 32.8527 3.45121C34.8363 2.95589 36.8549 2.61322 38.8908 2.42619C38.3351 1.01679 36.7398 0.0660762 36.7398 0.0660762C36.7398 0.0660762 40.609 -0.446431 43.9686 1.38323C44.4947 1.66992 45.0019 1.99003 45.4871 2.34162C47.5287 2.47515 49.5569 2.76731 51.5532 3.21546C51.4611 1.7548 50.3139 0.396648 50.2422 0.317209C50.3805 0.345397 54.1267 1.08597 56.7104 3.79972C57.1185 4.23353 57.4983 4.69317 57.8473 5.17581C59.7417 5.93799 61.5754 6.84348 63.3323 7.88443C63.7087 6.45452 63.0173 4.79143 62.984 4.70686C63.0941 4.7658 66.4358 6.6339 68.0567 10.0242C68.32 10.572 68.5458 11.137 68.7327 11.7154C70.2873 13.0241 71.7424 14.4469 73.0858 15.9718C73.9129 14.6906 73.7414 12.8327 73.7414 12.8327C73.7414 12.8327 76.4249 15.6695 76.9294 19.4595C77.005 20.0544 77.0435 20.6535 77.0446 21.2533C78.1265 22.9793 79.0775 24.7841 79.8895 26.6526C81.0521 25.6865 81.4592 23.8773 81.4592 23.8773C81.4592 23.8773 83.139 27.4034 82.4451 31.1627C82.3357 31.7477 82.1903 32.3253 82.0097 32.8924C82.5047 34.8757 82.8471 36.8941 83.034 38.9298C84.4398 38.3763 85.3898 36.7798 85.3898 36.7798C85.3898 36.7798 85.9122 40.6697 84.0967 44.0267Z" fill="#10160C"/>
<path d="M18.8768 8.6327L18.6207 9.12727L17.6502 10.9646L12.8874 20.0232C8.99507 25.1206 6.4768 31.1332 5.5741 37.4845C5.51264 37.9432 5.45378 38.4044 5.41024 38.8708C5.2734 40.1655 5.205 41.4665 5.20538 42.7685C5.2057 44.1503 5.28264 45.5311 5.43585 46.9044C5.54083 47.9013 5.69191 48.8878 5.87883 49.859C5.88489 49.9056 5.89343 49.9518 5.90443 49.9974H2.88797C2.68312 48.8767 2.52778 47.7424 2.42194 46.5944C1.01358 47.1453 0.0661469 48.7443 0.0661469 48.7443C0.0661469 48.7443 -0.445984 44.8672 1.37977 41.5077C1.66964 40.9849 1.98939 40.4792 2.33745 39.9932C2.47487 37.9557 2.76588 35.9315 3.20805 33.9379C1.74847 34.025 0.391341 35.1807 0.31196 35.2525C0.337567 35.1116 1.08015 31.3651 3.79445 28.7795C4.2275 28.3698 4.68683 27.9889 5.16953 27.6391C5.93358 25.7427 6.84008 23.907 7.88126 22.1476C6.45497 21.7683 4.788 22.4628 4.70606 22.4961C4.77008 22.3859 6.63168 19.0418 10.0194 17.4171C10.5689 17.1551 11.1352 16.9299 11.7146 16.7432C13.0217 15.1868 14.4434 13.7306 15.9678 12.3868C14.6875 11.5617 12.8285 11.7334 12.8285 11.7334C12.8285 11.7334 15.3814 9.30921 18.8768 8.6327Z" fill="#10160C"/>
</svg>
